<svg id="visual" viewBox="0 0 960 540" width="960" height="540" xmlns="http://www.w3.org/2000/svg" version="1.1">
  <defs>
    <linearGradient id="gradient" x1="0%" y1="0%" x2="100%" y2="100%">
      <stop offset="0%" stop-color="#003f7f"/>
      <stop offset="50%" stop-color="#0057b3"/>
      <stop offset="100%" stop-color="#0070e5"/>
    </linearGradient>
  </defs>
  <path d="M0 400C80 380 160 320 240 300C320 280 400 320 480 340C560 360 640 360 720 340C800 320 880 280 960 280L960 540L0 540Z" fill="url(#gradient)"></path>
  <path d="M0 350C80 330 160 270 240 250C320 230 400 270 480 290C560 310 640 310 720 290C800 270 880 230 960 230L960 540L0 540Z" fill="url(#gradient)" opacity="0.8"></path>
  <path d="M0 300C80 280 160 220 240 200C320 180 400 220 480 240C560 260 640 260 720 240C800 220 880 180 960 180L960 540L0 540Z" fill="url(#gradient)" opacity="0.6"></path>
  <path d="M0 250C80 230 160 170 240 150C320 130 400 170 480 190C560 210 640 210 720 190C800 170 880 130 960 130L960 540L0 540Z" fill="url(#gradient)" opacity="0.4"></path>
</svg>
