<svg id="visual" viewBox="0 0 960 540" width="960" height="540" xmlns="http://www.w3.org/2000/svg" version="1.1">
  <defs>
    <linearGradient id="gradient" x1="0%" y1="0%" x2="100%" y2="100%">
      <stop offset="0%" stop-color="#003f7f"/>
      <stop offset="50%" stop-color="#0057b3"/>
      <stop offset="100%" stop-color="#0070e5"/>
    </linearGradient>
  </defs>

  <!-- Background with Gradient -->
  <rect width="960" height="540" fill="url(#gradient)" />

  <!-- Abstract Network Connections -->
  <circle cx="200" cy="250" r="120" fill="url(#gradient)" opacity="0.5"/>
  <circle cx="400" cy="280" r="100" fill="url(#gradient)" opacity="0.5"/>
  <circle cx="600" cy="260" r="90" fill="url(#gradient)" opacity="0.5"/>
  <circle cx="800" cy="300" r="110" fill="url(#gradient)" opacity="0.5"/>

  <!-- Network Paths -->
  <line x1="200" y1="250" x2="400" y2="280" stroke="url(#gradient)" stroke-width="5"/>
  <line x1="400" y1="280" x2="600" y2="260" stroke="url(#gradient)" stroke-width="5"/>
  <line x1="600" y1="260" x2="800" y2="300" stroke="url(#gradient)" stroke-width="5"/>

  <!-- Abstract Geometric Shapes -->
  <path d="M300 170 Q320 230 360 220 T400 270" fill="none" stroke="url(#gradient)" stroke-width="4"/>
  <path d="M500 200 Q520 250 560 230 T600 260" fill="none" stroke="url(#gradient)" stroke-width="4"/>

  <!-- Connecting Dots -->
  <circle cx="200" cy="250" r="8" fill="#ffffff"/>
  <circle cx="400" cy="280" r="8" fill="#ffffff"/>
  <circle cx="600" cy="260" r="8" fill="#ffffff"/>
  <circle cx="800" cy="300" r="8" fill="#ffffff"/>

  <!-- Wi-Fi Signal -->
  <circle cx="400" cy="350" r="7" fill="#ffffff"/>
  <path d="M390 340 Q400 320 410 340" stroke="#ffffff" stroke-width="2" fill="none"/>
  <path d="M380 330 Q400 310 420 330" stroke="#ffffff" stroke-width="2" fill="none"/>
  <path d="M370 320 Q400 300 430 320" stroke="#ffffff" stroke-width="2" fill="none"/>
</svg>
