<svg id="visual" viewBox="0 0 960 540" width="960" height="540" xmlns="http://www.w3.org/2000/svg" version="1.1">
  <defs>
    <linearGradient id="gradient" x1="0%" y1="0%" x2="100%" y2="100%">
      <stop offset="0%" stop-color="#003f7f"/>
      <stop offset="50%" stop-color="#0057b3"/>
      <stop offset="100%" stop-color="#0070e5"/>
    </linearGradient>
  </defs>
  <!-- Background -->
  <rect width="960" height="540" fill="url(#gradient)"></rect>
  
  <!-- Network Engineer -->
  <circle cx="200" cy="300" r="50" fill="#f8c291"/> <!-- Head -->
  <rect x="180" y="350" width="40" height="100" fill="#2c3e50"/> <!-- Body -->
  <rect x="165" y="450" width="15" height="50" fill="#34495e"/> <!-- Left Leg -->
  <rect x="220" y="450" width="15" height="50" fill="#34495e"/> <!-- Right Leg -->
  <rect x="155" y="370" width="15" height="60" fill="#2c3e50"/> <!-- Left Arm -->
  <rect x="230" y="370" width="15" height="60" fill="#2c3e50"/> <!-- Right Arm -->
  
  <!-- Laptop -->
  <rect x="250" y="350" width="70" height="40" fill="#bdc3c7"/> <!-- Laptop Base -->
  <rect x="255" y="320" width="60" height="30" fill="#ecf0f1"/> <!-- Laptop Screen -->
  
  <!-- Server Rack -->
  <rect x="600" y="250" width="80" height="200" fill="#2c3e50"/> <!-- Rack Body -->
  <rect x="610" y="260" width="60" height="30" fill="#ecf0f1"/> <!-- Server 1 -->
  <rect x="610" y="300" width="60" height="30" fill="#ecf0f1"/> <!-- Server 2 -->
  <rect x="610" y="340" width="60" height="30" fill="#ecf0f1"/> <!-- Server 3 -->
  <rect x="610" y="380" width="60" height="30" fill="#ecf0f1"/> <!-- Server 4 -->
  
  <!-- Network Cables -->
  <line x1="320" y1="370" x2="600" y2="270" stroke="#ecf0f1" stroke-width="3"/>
  <line x1="320" y1="370" x2="600" y2="310" stroke="#ecf0f1" stroke-width="3"/>
  
  <!-- Wi-Fi Signal -->
  <circle cx="250" cy="250" r="5" fill="#ecf0f1"/>
  <path d="M240 260 Q250 240 260 260" stroke="#ecf0f1" stroke-width="2" fill="none"/>
  <path d="M230 270 Q250 230 270 270" stroke="#ecf0f1" stroke-width="2" fill="none"/>
</svg>
